# File created by Blade
# Date/Time:  Thu Sep 25 15:55:53 2014
# Frame Rate: 120.000 fps
#------------------------------------------------------
:FULLY-SPECIFIED
:DEGREES
440
root -2.458566 35.133300 -0.488620 19.445992 20.039868 50.822749
Spine 8.392003 0.798995 -38.446324
Head -24.336568 -24.876159 10.435515
LeftShoulder 13.078172 4.284982 11.920962
LeftArm 69.691220 30.437874 -31.337781
LeftForeArm 6.300194 -0.000000 15.728674
LeftHand -19.299113 0.000000 -7.445309
LeftHandThumb1 -26.253704 0.000000 33.147579
RightShoulder -7.424761 18.175415 -27.079913
RightArm -2.545455 6.973149 80.262742
RightForeArm -31.581561 -0.000000 69.460868
RightHand -3.978716 -0.000000 3.140435
RightHandThumb1 -24.326973 -0.000000 -32.862282
LeftUpLeg -58.492549 57.619895 47.105808
LeftLeg 5.908231 -0.000000 -0.000000
LeftFoot 38.215663 34.000324 6.093548
LeftToeBase 11.309167 -0.000000 -0.000000
RightUpLeg -3.926714 -22.410643 -46.966318
RightLeg 17.856828 -0.000000 -0.000000
RightFoot -13.526370 -14.199556 -0.320964
RightToeBase 3.220555 -0.000000 -0.000000
441
root -2.431523 35.123935 -0.453329 19.410722 20.107880 50.554520
Spine 8.338424 0.281334 -38.569550
Head -24.480208 -24.467615 11.069545
LeftShoulder 13.359480 4.358071 12.046888
LeftArm 69.387312 30.244170 -30.938069
LeftForeArm 5.946752 -0.000000 15.743773
LeftHand -19.303822 -0.000000 -7.405471
LeftHandThumb1 -26.253704 0.000000 33.147579
RightShoulder -7.538415 18.029594 -27.152388
RightArm -3.055221 7.631602 81.597895
RightForeArm -31.592928 -0.000000 69.486997
RightHand -3.719576 -0.000000 3.494074
RightHandThumb1 -24.326973 -0.000000 -32.862282
LeftUpLeg -61.834622 60.216551 44.740773
LeftLeg 5.384173 -0.000000 -0.000000
LeftFoot 38.372663 32.979770 7.013758
LeftToeBase 10.847597 -0.000000 -0.000000
RightUpLeg -3.877029 -21.998917 -46.618239
RightLeg 17.757583 -0.000000 -0.000000
RightFoot -13.284745 -14.683077 -0.868129
RightToeBase 2.995597 -0.000000 -0.000000
442
root -2.418200 35.113322 -0.432856 19.517775 20.216026 50.355051
Spine 8.243492 -0.256466 -38.724509
Head -24.641558 -24.031993 11.777740
LeftShoulder 13.644293 4.409136 12.484044
LeftArm 67.343204 29.044080 -35.023548
LeftForeArm 9.323911 -0.000000 15.125695
LeftHand -18.935714 0.000000 -7.976739
LeftHandThumb1 -26.253704 0.000000 33.147579
RightShoulder -7.679360 17.868438 -27.156556
RightArm -3.669693 7.897537 82.595929
RightForeArm -31.637969 -0.000000 69.669407
RightHand -3.645358 -0.000000 3.526232
RightHandThumb1 -24.326973 -0.000000 -32.862282
LeftUpLeg -65.965145 62.447780 41.446763
LeftLeg 4.842203 -0.000000 -0.000000
LeftFoot 38.326134 32.118497 7.569447
LeftToeBase 10.572055 -0.000000 -0.000000
RightUpLeg -3.941355 -21.609073 -46.265774
RightLeg 17.707480 -0.000000 -0.000000
RightFoot -13.038078 -15.305817 -1.383272
RightToeBase 2.909785 -0.000000 -0.000000
443
root -2.411379 35.101104 -0.426402 19.681877 20.477851 50.292658
Spine 8.293368 -0.889479 -38.854924
Head -24.900927 -23.637585 12.312176
LeftShoulder 13.803085 4.062864 12.652267
LeftArm 66.650117 28.955561 -35.518100
LeftForeArm 9.432871 -0.000000 15.185045
LeftHand -19.066181 -0.000000 -7.645131
LeftHandThumb1 -26.253704 0.000000 33.147579
RightShoulder -7.810621 17.730300 -27.261201
RightArm -4.359688 8.056488 83.450724
RightForeArm -31.604799 -0.000000 69.925484
RightHand -3.762865 0.000000 3.512624
RightHandThumb1 -24.326973 -0.000000 -32.862282
LeftUpLeg -70.082908 63.943425 38.072078
LeftLeg 4.330363 -0.000000 -0.000000
LeftFoot 38.301009 31.586889 8.009716
LeftToeBase 9.964583 -0.000000 -0.000000
RightUpLeg -3.905801 -21.215065 -46.031499
RightLeg 17.715027 -0.000000 -0.000000
RightFoot -12.867407 -16.089322 -1.712341
RightToeBase 2.791729 -0.000000 -0.000000
444
root -2.417621 35.085412 -0.424284 19.854206 20.798287 50.272128
Spine 8.425334 -1.433397 -38.967946
Head -25.278092 -23.339445 12.874665
LeftShoulder 13.967391 4.040688 12.870886
LeftArm 66.585536 28.717491 -35.065839
LeftForeArm 8.809350 -0.000000 15.341227
LeftHand -19.081816 -0.000000 -7.346320
LeftHandThumb1 -26.253704 0.000000 33.147579
RightShoulder -7.936922 17.672440 -27.413288
RightArm -5.194998 8.307649 84.246259
RightForeArm -31.466061 -0.000000 70.157144
RightHand -3.971418 -0.000000 3.268151
RightHandThumb1 -24.326973 -0.000000 -32.862282
LeftUpLeg -73.788468 64.879717 34.955476
LeftLeg 3.777010 -0.000000 -0.000000
LeftFoot 38.277151 31.354849 8.380802
LeftToeBase 9.597690 -0.000000 -0.000000
RightUpLeg -3.826785 -20.851425 -45.823527
RightLeg 17.730748 -0.000000 -0.000000
RightFoot -12.773268 -16.872732 -1.946874
RightToeBase 2.866721 -0.000000 -0.000000
445
root -2.435480 35.065038 -0.429820 20.098269 21.159145 50.283432
Spine 8.474096 -1.968356 -39.021756
Head -25.469950 -23.191871 13.198119
LeftShoulder 14.165861 4.042351 12.992530
LeftArm 66.664179 28.540988 -34.144561
LeftForeArm 7.788290 -0.000000 15.582094
LeftHand -19.138615 -0.000000 -7.083134
LeftHandThumb1 -26.253704 0.000000 33.147579
RightShoulder -8.103664 17.518493 -27.656350
RightArm -5.909260 8.712817 85.120758
RightForeArm -31.277604 0.000000 70.232708
RightHand -4.095503 0.000000 3.097303
RightHandThumb1 -24.326973 -0.000000 -32.862282
LeftUpLeg -76.766799 65.380928 32.497577
LeftLeg 3.349012 -0.000000 -0.000000
LeftFoot 38.211407 31.246198 8.518364
LeftToeBase 9.232020 -0.000000 -0.000000
RightUpLeg -3.798214 -20.452641 -45.612560
RightLeg 17.814241 -0.000000 -0.000000
RightFoot -12.727243 -17.733707 -2.098428
RightToeBase 2.950939 -0.000000 -0.000000
